<svg width="230" height="230" viewBox="0 0 230 230" fill="none" xmlns="http://www.w3.org/2000/svg">
<g clip-path="url(#clip0_46_29)">
<rect width="230" height="230" fill="none"/>
<ellipse cx="115.99" cy="119.402" rx="104.506" ry="104.598" fill="black"/>
<path d="M20.4399 8.94572L68.0111 37.3781L32.6081 63.2648L20.4399 8.94572Z" fill="black"/>
<path d="M209.56 8.94569L197.392 63.2648L161.989 37.3781L209.56 8.94569Z" fill="black"/>
<g filter="url(#filter0_d_46_29)">
<path d="M80 121H185" stroke="white" stroke-width="16" stroke-linecap="round"/>
</g>
<g filter="url(#filter1_d_46_29)">
<path d="M80 150H132.5H185" stroke="white" stroke-width="16" stroke-linecap="round"/>
</g>
<g filter="url(#filter2_d_46_29)">
<path d="M80 93H185" stroke="white" stroke-width="16" stroke-linecap="round"/>
</g>
<path d="M61 93.5C61 99.0228 56.5228 103.5 51 103.5C45.4772 103.5 41 99.0228 41 93.5C41 87.9772 45.4772 83.5 51 83.5C56.5228 83.5 61 87.9772 61 93.5Z" fill="white"/>
<path d="M61 121C61 126.523 56.5228 131 51 131C45.4772 131 41 126.523 41 121C41 115.477 45.4772 111 51 111C56.5228 111 61 115.477 61 121Z" fill="white"/>
<path d="M61 150C61 155.523 56.5228 160 51 160C45.4772 160 41 155.523 41 150C41 144.477 45.4772 140 51 140C56.5228 140 61 144.477 61 150Z" fill="white"/>
</g>
<defs>
<filter id="filter0_d_46_29" x="68" y="113" width="129" height="24" filterUnits="userSpaceOnUse" color-interpolation-filters="sRGB">
<feFlood flood-opacity="0" result="BackgroundImageFix"/>
<feColorMatrix in="SourceAlpha" type="matrix" values="0 0 0 0 0 0 0 0 0 0 0 0 0 0 0 0 0 0 127 0" result="hardAlpha"/>
<feOffset dy="4"/>
<feGaussianBlur stdDeviation="2"/>
<feComposite in2="hardAlpha" operator="out"/>
<feColorMatrix type="matrix" values="0 0 0 0 0 0 0 0 0 0 0 0 0 0 0 0 0 0 0.25 0"/>
<feBlend mode="normal" in2="BackgroundImageFix" result="effect1_dropShadow_46_29"/>
<feBlend mode="normal" in="SourceGraphic" in2="effect1_dropShadow_46_29" result="shape"/>
</filter>
<filter id="filter1_d_46_29" x="68" y="142" width="129" height="24" filterUnits="userSpaceOnUse" color-interpolation-filters="sRGB">
<feFlood flood-opacity="0" result="BackgroundImageFix"/>
<feColorMatrix in="SourceAlpha" type="matrix" values="0 0 0 0 0 0 0 0 0 0 0 0 0 0 0 0 0 0 127 0" result="hardAlpha"/>
<feOffset dy="4"/>
<feGaussianBlur stdDeviation="2"/>
<feComposite in2="hardAlpha" operator="out"/>
<feColorMatrix type="matrix" values="0 0 0 0 0 0 0 0 0 0 0 0 0 0 0 0 0 0 0.25 0"/>
<feBlend mode="normal" in2="BackgroundImageFix" result="effect1_dropShadow_46_29"/>
<feBlend mode="normal" in="SourceGraphic" in2="effect1_dropShadow_46_29" result="shape"/>
</filter>
<filter id="filter2_d_46_29" x="68" y="85" width="129" height="24" filterUnits="userSpaceOnUse" color-interpolation-filters="sRGB">
<feFlood flood-opacity="0" result="BackgroundImageFix"/>
<feColorMatrix in="SourceAlpha" type="matrix" values="0 0 0 0 0 0 0 0 0 0 0 0 0 0 0 0 0 0 127 0" result="hardAlpha"/>
<feOffset dy="4"/>
<feGaussianBlur stdDeviation="2"/>
<feComposite in2="hardAlpha" operator="out"/>
<feColorMatrix type="matrix" values="0 0 0 0 0 0 0 0 0 0 0 0 0 0 0 0 0 0 0.25 0"/>
<feBlend mode="normal" in2="BackgroundImageFix" result="effect1_dropShadow_46_29"/>
<feBlend mode="normal" in="SourceGraphic" in2="effect1_dropShadow_46_29" result="shape"/>
</filter>
<clipPath id="clip0_46_29">
<rect width="230" height="230" fill="white"/>
</clipPath>
</defs>
</svg>
