<svg width="3032" height="852" viewBox="0 0 3032 852" fill="none" xmlns="http://www.w3.org/2000/svg">
<g clip-path="url(#clip0_13_3)">
<rect width="3032" height="852" fill="none"/>
<ellipse cx="417.5" cy="466" rx="379.5" ry="367" fill="#1E1E1E"/>
<path d="M99.923 18L305.798 166.74L125.798 270.663L99.923 18Z" fill="#1E1E1E"/>
<path d="M118.282 50L266.782 168.645L146.782 237.928L118.282 50Z" fill="#EBA5A5"/>
<path d="M118.282 50L266.782 168.645L146.782 237.928L118.282 50Z" fill="#EBA5A5"/>
<path d="M118.282 50L266.782 168.645L146.782 237.928L118.282 50Z" fill="#EBA5A5"/>
<path d="M728.423 18L702.548 270.663L522.548 166.74L728.423 18Z" fill="#1E1E1E"/>
<circle cx="418" cy="466" r="130" fill="white" fill-opacity="0.82"/>
<path d="M478.622 428L418 533L357.378 428H478.622Z" fill="#EBA5A5" stroke="black" stroke-width="5"/>
<path d="M710.282 50L681.782 237.928L561.782 168.645L710.282 50Z" fill="#EBA5A5"/>
<path d="M710.282 50L681.782 237.928L561.782 168.645L710.282 50Z" fill="#EBA5A5"/>
<path d="M710.282 50L681.782 237.928L561.782 168.645L710.282 50Z" fill="#EBA5A5"/>
<circle cx="267" cy="352" r="82.5" fill="#1E1E1E" stroke="url(#paint0_linear_13_3)" stroke-width="15"/>
<circle cx="571" cy="352" r="82.5" fill="#1E1E1E" stroke="url(#paint1_linear_13_3)" stroke-width="15"/>
<line x1="417.5" y1="528" x2="417.5" y2="426" stroke="black"/>
<path d="M874.515 404V136.04H986.55C1005.29 136.04 1021.46 139.505 1035.06 146.435C1050.72 154.392 1063.17 165.813 1072.41 180.7C1081.65 195.33 1086.27 211.5 1086.27 229.21C1086.27 246.92 1081.65 263.218 1072.41 278.105C1063.42 292.992 1051.1 304.413 1035.45 312.37C1022.1 319.3 1005.8 322.765 986.55 322.765H944.585V404H874.515ZM1306.58 144.895C1321.98 152.082 1334.04 162.733 1342.77 176.85C1351.75 190.967 1356.24 206.623 1356.24 223.82C1356.24 243.84 1350.08 261.807 1337.76 277.72C1325.7 293.377 1310.17 303.772 1291.18 308.905L1359.32 404H1342.38L1276.55 311.6L1264.23 311.985H1167.59V404H1153.35V136.04H1255.37C1266.66 136.04 1276.29 136.81 1284.25 138.35C1292.46 139.633 1299.9 141.815 1306.58 144.895ZM1268.08 297.74C1281.42 297.74 1293.74 294.403 1305.04 287.73C1316.33 281.057 1325.31 272.073 1331.99 260.78C1338.66 249.487 1342 237.167 1342 223.82C1342 208.933 1338.02 195.458 1330.06 183.395C1322.36 171.332 1311.58 162.348 1297.72 156.445C1287.71 152.338 1273.59 150.285 1255.37 150.285H1167.59V297.74H1268.08ZM1441.03 136.04H1629.68V150.285H1455.28V258.855H1606.97V273.1H1455.28V389.755H1629.68V404H1441.03V136.04ZM1926.61 136.04V150.285H1825.35V404H1811.49V150.285H1710.24V136.04H1926.61ZM2203.13 136.04L2202.74 150.285L2021.79 389.755H2203.13V404H2004.08V389.755L2184.65 150.285H2008.32V136.04H2203.13ZM2296 136.04H2484.65V150.285H2310.25V258.855H2461.94V273.1H2310.25V389.755H2484.65V404H2296V136.04ZM2590.62 404V136.04H2604.86V389.755H2791.59V404H2590.62Z" fill="black"/>
<path d="M1113.57 554.39H1118.77L1150.36 610.29L1181.82 554.39H1186.63V644.87H1113.57V554.39ZM1118.38 640.19H1181.82V564.14L1152.57 615.62H1148.02L1118.38 563.36V640.19ZM1243.86 554.52H1248.93L1286.11 645H1280.91L1268.69 615.1H1224.1L1211.75 645H1206.68L1243.86 554.52ZM1226.05 610.42H1266.74L1246.33 560.76L1226.05 610.42ZM1310.84 645H1306.03V554.52H1311.23L1342.82 610.29L1374.28 554.52H1379.09V645H1374.28V564.14L1345.03 615.75H1340.48L1310.84 563.49V645ZM1468.17 554.52V559.33H1441.13V640.19H1468.17V645H1409.54V640.19H1436.45V559.33H1409.54V554.52H1468.17ZM1499.66 645V554.52H1504.73L1567.91 615.88V554.52H1572.72V645H1567.91V622.64L1504.47 560.76V645H1499.66ZM1628.78 554.52H1633.85L1671.03 645H1665.83L1653.61 615.1H1609.02L1596.67 645H1591.6L1628.78 554.52ZM1610.97 610.42H1651.66L1631.25 560.76L1610.97 610.42ZM1841.91 557.12C1845.99 559.2 1849.11 562.06 1851.27 565.7C1853.53 569.34 1854.65 573.413 1854.65 577.92C1854.65 582.167 1853.53 586.11 1851.27 589.75C1849.11 593.303 1846.07 596.12 1842.17 598.2C1846.77 599.76 1850.58 602.62 1853.61 606.78C1856.65 610.94 1858.16 615.533 1858.16 620.56C1858.16 625.067 1857.04 629.227 1854.78 633.04C1852.53 636.853 1849.54 639.8 1845.81 641.88C1843.91 642.92 1841.78 643.7 1839.44 644.22C1837.1 644.74 1833.98 645 1830.08 645H1792.12V554.52H1828.26C1833.98 554.52 1838.53 555.387 1841.91 557.12ZM1839.83 594.43C1842.95 592.87 1845.42 590.617 1847.24 587.67C1849.06 584.723 1849.97 581.473 1849.97 577.92C1849.97 573.933 1848.93 570.467 1846.85 567.52C1844.77 564.487 1842.13 562.277 1838.92 560.89C1836.5 559.85 1832.42 559.33 1826.7 559.33H1796.8V596.51H1829.04C1833.55 596.51 1837.15 595.817 1839.83 594.43ZM1842.95 638.24C1846.16 636.593 1848.72 634.21 1850.62 631.09C1852.53 627.883 1853.48 624.417 1853.48 620.69C1853.48 616.79 1852.49 613.28 1850.49 610.16C1848.5 606.953 1845.81 604.57 1842.43 603.01C1839.83 601.797 1836.32 601.19 1831.9 601.19H1796.8V640.32H1830.21C1833.51 640.32 1836.11 640.147 1838.01 639.8C1839.92 639.453 1841.57 638.933 1842.95 638.24ZM1883.41 554.52H1888.22V610.42C1888.22 616.14 1889.65 621.427 1892.51 626.28C1895.37 631.133 1899.23 634.99 1904.08 637.85C1908.94 640.71 1914.22 642.14 1919.94 642.14C1925.66 642.14 1930.95 640.71 1935.8 637.85C1940.66 634.99 1944.51 631.133 1947.37 626.28C1950.23 621.427 1951.66 616.14 1951.66 610.42V554.52H1956.47V610.42C1956.47 617.007 1954.83 623.117 1951.53 628.75C1948.24 634.297 1943.78 638.717 1938.14 642.01C1932.6 645.303 1926.53 646.95 1919.94 646.95C1913.36 646.95 1907.25 645.303 1901.61 642.01C1896.07 638.717 1891.65 634.297 1888.35 628.75C1885.06 623.117 1883.41 617.007 1883.41 610.42V554.52ZM1988.22 645V554.52H1993.03V640.19H2056.08V645H1988.22ZM2112.4 552.57C2119.16 552.57 2125.4 554.26 2131.12 557.64C2136.84 560.933 2141.35 565.44 2144.64 571.16C2148.02 576.88 2149.71 583.12 2149.71 589.88V609.64C2149.71 616.4 2148.02 622.64 2144.64 628.36C2141.35 634.08 2136.84 638.63 2131.12 642.01C2125.4 645.303 2119.16 646.95 2112.4 646.95C2105.64 646.95 2099.4 645.303 2093.68 642.01C2087.96 638.63 2083.41 634.08 2080.03 628.36C2076.74 622.64 2075.09 616.4 2075.09 609.64V589.88C2075.09 583.12 2076.74 576.88 2080.03 571.16C2083.41 565.44 2087.96 560.933 2093.68 557.64C2099.4 554.26 2105.64 552.57 2112.4 552.57ZM2079.9 609.64C2079.9 615.533 2081.33 620.993 2084.19 626.02C2087.14 630.96 2091.08 634.903 2096.02 637.85C2101.05 640.71 2106.51 642.14 2112.4 642.14C2118.3 642.14 2123.71 640.71 2128.65 637.85C2133.68 634.903 2137.62 630.96 2140.48 626.02C2143.43 620.993 2144.9 615.533 2144.9 609.64V589.88C2144.9 583.987 2143.43 578.57 2140.48 573.63C2137.62 568.603 2133.68 564.66 2128.65 561.8C2123.71 558.853 2118.3 557.38 2112.4 557.38C2106.51 557.38 2101.05 558.853 2096.02 561.8C2091.08 564.66 2087.14 568.603 2084.19 573.63C2081.33 578.57 2079.9 583.987 2079.9 589.88V609.64ZM2177.57 610.42C2177.57 616.14 2179 621.427 2181.86 626.28C2184.8 631.133 2188.7 634.99 2193.56 637.85C2198.5 640.71 2203.83 642.14 2209.55 642.14C2215.44 642.14 2220.77 640.97 2225.54 638.63C2230.3 636.29 2234.03 633.04 2236.72 628.88C2239.49 624.72 2240.92 620.04 2241.01 614.84H2245.69C2245.69 620.82 2244.08 626.28 2240.88 631.22C2237.76 636.073 2233.42 639.93 2227.88 642.79C2222.42 645.563 2216.31 646.95 2209.55 646.95C2202.96 646.95 2196.85 645.303 2191.22 642.01C2185.58 638.717 2181.12 634.297 2177.83 628.75C2174.53 623.117 2172.89 617.007 2172.89 610.42V589.1C2172.89 582.513 2174.49 576.447 2177.7 570.9C2180.99 565.267 2185.41 560.803 2190.96 557.51C2196.59 554.217 2202.7 552.57 2209.29 552.57C2215.96 552.57 2222.03 554 2227.49 556.86C2233.03 559.633 2237.41 563.49 2240.62 568.43C2243.82 573.283 2245.43 578.7 2245.43 584.68H2240.75C2240.66 579.48 2239.23 574.8 2236.46 570.64C2233.68 566.48 2229.91 563.23 2225.15 560.89C2220.47 558.55 2215.18 557.38 2209.29 557.38C2203.57 557.38 2198.28 558.81 2193.43 561.67C2188.57 564.53 2184.72 568.387 2181.86 573.24C2179 578.093 2177.57 583.38 2177.57 589.1V610.42ZM2270.03 645V554.52H2274.84V597.29L2334.9 597.29V554.52H2339.71V645H2334.9V602.1L2274.84 602.1V645H2270.03ZM2372.11 554.52V615.75L2433.47 554.52H2440.23L2402.4 592.22L2440.1 645H2434.38L2399.02 595.6L2372.11 622.51V645H2367.3V554.52H2372.11ZM2494.86 554.52H2499.93L2537.11 645H2531.91L2519.69 615.1H2475.1L2462.75 645H2457.68L2494.86 554.52ZM2477.05 610.42H2517.74L2497.33 560.76L2477.05 610.42Z" fill="black"/>
<path d="M1521.5 737.7C1515.83 736.567 1511.2 735.333 1507.6 734C1504.07 732.6 1501.27 730.733 1499.2 728.4C1497.2 726 1496.2 722.933 1496.2 719.2C1496.2 715.333 1497.2 711.933 1499.2 709C1501.27 706.067 1504.13 703.8 1507.8 702.2C1511.53 700.6 1515.83 699.8 1520.7 699.8C1525.37 699.8 1529.63 700.8 1533.5 702.8C1537.43 704.733 1540.53 707.467 1542.8 711C1545.07 714.533 1546.2 718.567 1546.2 723.1H1542.5C1542.5 719.167 1541.53 715.7 1539.6 712.7C1537.67 709.7 1535.03 707.4 1531.7 705.8C1528.37 704.133 1524.67 703.3 1520.6 703.3C1517 703.3 1513.63 703.867 1510.5 705C1507.37 706.133 1504.8 707.867 1502.8 710.2C1500.87 712.533 1499.9 715.467 1499.9 719C1499.9 722.2 1500.83 724.767 1502.7 726.7C1504.57 728.567 1507 730 1510 731C1513 732 1517.2 733.067 1522.6 734.2C1528.07 735.333 1532.3 736.433 1535.3 737.5C1538.37 738.5 1540.93 740.2 1543 742.6C1545.13 745 1546.2 748.367 1546.2 752.7C1546.2 757.033 1545.03 760.7 1542.7 763.7C1540.43 766.633 1537.4 768.833 1533.6 770.3C1529.8 771.767 1525.67 772.5 1521.2 772.5C1515.67 772.5 1510.8 771.467 1506.6 769.4C1502.4 767.333 1499.17 764.433 1496.9 760.7C1494.7 756.9 1493.6 752.567 1493.6 747.7H1497.3C1497.3 751.967 1498.23 755.7 1500.1 758.9C1502.03 762.1 1504.8 764.6 1508.4 766.4C1512 768.133 1516.27 769 1521.2 769C1527.33 769 1532.4 767.533 1536.4 764.6C1540.47 761.667 1542.5 757.667 1542.5 752.6C1542.5 749.133 1541.63 746.467 1539.9 744.6C1538.17 742.733 1535.97 741.4 1533.3 740.6C1530.7 739.733 1526.77 738.767 1521.5 737.7ZM1616.62 701.4V705.1H1595.82V767.3H1616.62V771H1571.52V767.3H1592.22V705.1H1571.52V701.4H1616.62ZM1640.85 771V701.4H1644.75L1693.35 748.6V701.4H1697.05V771H1693.35V753.8L1644.55 706.2V771H1640.85ZM1718.17 744.4C1718.17 748.8 1719.27 752.867 1721.47 756.6C1723.74 760.333 1726.74 763.3 1730.47 765.5C1734.27 767.7 1738.37 768.8 1742.77 768.8C1747.3 768.8 1751.4 767.9 1755.07 766.1C1758.74 764.3 1761.6 761.8 1763.67 758.6C1765.8 755.4 1766.9 751.8 1766.97 747.8H1770.57C1770.57 752.4 1769.34 756.6 1766.87 760.4C1764.47 764.133 1761.14 767.1 1756.87 769.3C1752.67 771.433 1747.97 772.5 1742.77 772.5C1737.7 772.5 1733 771.233 1728.67 768.7C1724.34 766.167 1720.9 762.767 1718.37 758.5C1715.84 754.167 1714.57 749.467 1714.57 744.4V728C1714.57 722.933 1715.8 718.267 1718.27 714C1720.8 709.667 1724.2 706.233 1728.47 703.7C1732.8 701.167 1737.5 699.9 1742.57 699.9C1747.7 699.9 1752.37 701 1756.57 703.2C1760.84 705.333 1764.2 708.3 1766.67 712.1C1769.14 715.833 1770.37 720 1770.37 724.6H1766.77C1766.7 720.6 1765.6 717 1763.47 713.8C1761.34 710.6 1758.44 708.1 1754.77 706.3C1751.17 704.5 1747.1 703.6 1742.57 703.6C1738.17 703.6 1734.1 704.7 1730.37 706.9C1726.64 709.1 1723.67 712.067 1721.47 715.8C1719.27 719.533 1718.17 723.6 1718.17 728V744.4ZM1792.09 701.4H1841.09V705.1H1795.79V733.3H1835.19V737H1795.79V767.3H1841.09V771H1792.09V701.4ZM1985.74 767.3V771H1942.54V767.3L1957.54 750.8L1971.14 736L1972.34 734.7C1975.01 731.9 1977.07 729.367 1978.54 727.1C1980.01 724.767 1980.74 722.267 1980.74 719.6C1980.74 716.6 1979.97 713.867 1978.44 711.4C1976.97 708.933 1974.91 707 1972.24 705.6C1969.64 704.2 1966.74 703.5 1963.54 703.5C1960.47 703.5 1957.61 704.267 1954.94 705.8C1952.34 707.333 1950.27 709.433 1948.74 712.1C1947.21 714.7 1946.44 717.567 1946.44 720.7H1942.74C1942.74 716.9 1943.67 713.433 1945.54 710.3C1947.41 707.1 1949.91 704.567 1953.04 702.7C1956.24 700.833 1959.74 699.9 1963.54 699.9C1967.47 699.9 1971.01 700.767 1974.14 702.5C1977.34 704.167 1979.84 706.5 1981.64 709.5C1983.51 712.5 1984.44 715.867 1984.44 719.6C1984.44 722.933 1983.61 725.9 1981.94 728.5C1980.27 731.1 1977.97 734 1975.04 737.2L1973.84 738.5L1947.54 767.3H1985.74ZM2061.66 749C2061.66 753.267 2060.6 757.2 2058.46 760.8C2056.4 764.4 2053.56 767.267 2049.96 769.4C2046.36 771.467 2042.43 772.5 2038.16 772.5C2033.9 772.5 2029.96 771.467 2026.36 769.4C2022.76 767.267 2019.9 764.4 2017.76 760.8C2015.7 757.2 2014.66 753.267 2014.66 749V723.5C2014.66 719.233 2015.7 715.3 2017.76 711.7C2019.9 708.1 2022.76 705.267 2026.36 703.2C2029.96 701.067 2033.9 700 2038.16 700C2042.43 700 2046.36 701.067 2049.96 703.2C2053.56 705.267 2056.4 708.1 2058.46 711.7C2060.6 715.3 2061.66 719.233 2061.66 723.5V749ZM2018.26 749C2018.26 751.267 2018.7 753.6 2019.56 756L2054.86 712.9C2053.06 710.1 2050.7 707.867 2047.76 706.2C2044.83 704.533 2041.63 703.7 2038.16 703.7C2034.56 703.7 2031.23 704.6 2028.16 706.4C2025.16 708.133 2022.76 710.533 2020.96 713.6C2019.16 716.6 2018.26 719.9 2018.26 723.5V749ZM2058.06 723.5C2058.06 721.233 2057.63 718.9 2056.76 716.5L2021.46 759.6C2023.26 762.467 2025.63 764.733 2028.56 766.4C2031.5 768.067 2034.7 768.9 2038.16 768.9C2041.76 768.9 2045.06 768 2048.06 766.2C2051.13 764.4 2053.56 762 2055.36 759C2057.16 755.933 2058.06 752.6 2058.06 749V723.5ZM2133.79 767.3V771H2090.59V767.3L2105.59 750.8L2119.19 736L2120.39 734.7C2123.05 731.9 2125.12 729.367 2126.59 727.1C2128.05 724.767 2128.79 722.267 2128.79 719.6C2128.79 716.6 2128.02 713.867 2126.49 711.4C2125.02 708.933 2122.95 707 2120.29 705.6C2117.69 704.2 2114.79 703.5 2111.59 703.5C2108.52 703.5 2105.65 704.267 2102.99 705.8C2100.39 707.333 2098.32 709.433 2096.79 712.1C2095.25 714.7 2094.49 717.567 2094.49 720.7H2090.79C2090.79 716.9 2091.72 713.433 2093.59 710.3C2095.45 707.1 2097.95 704.567 2101.09 702.7C2104.29 700.833 2107.79 699.9 2111.59 699.9C2115.52 699.9 2119.05 700.767 2122.19 702.5C2125.39 704.167 2127.89 706.5 2129.69 709.5C2131.55 712.5 2132.49 715.867 2132.49 719.6C2132.49 722.933 2131.65 725.9 2129.99 728.5C2128.32 731.1 2126.02 734 2123.09 737.2L2121.89 738.5L2095.59 767.3H2133.79ZM2184.41 767.3V714.1C2182.21 717.5 2179.31 720.2 2175.71 722.2C2172.18 724.2 2168.31 725.2 2164.11 725.2V721.6C2167.78 721.6 2171.14 720.7 2174.21 718.9C2177.34 717.033 2179.81 714.567 2181.61 711.5C2183.48 708.367 2184.41 704.967 2184.41 701.3H2188.01V767.3H2209.01V771H2163.41V767.3H2184.41Z" fill="black"/>
<line x1="883" y1="473.5" x2="2747" y2="473.5" stroke="black" stroke-width="7"/>
</g>
<defs>
<linearGradient id="paint0_linear_13_3" x1="267" y1="262" x2="267" y2="442" gradientUnits="userSpaceOnUse">
<stop stop-color="#A9D039"/>
<stop offset="0.5" stop-color="#ECCA54"/>
<stop offset="1" stop-color="#DAFA81"/>
</linearGradient>
<linearGradient id="paint1_linear_13_3" x1="571" y1="262" x2="571" y2="442" gradientUnits="userSpaceOnUse">
<stop stop-color="#A9D039"/>
<stop offset="0.5" stop-color="#ECCA54"/>
<stop offset="1" stop-color="#DAFA81"/>
</linearGradient>
<clipPath id="clip0_13_3">
<rect width="3032" height="852" fill="white"/>
</clipPath>
</defs>
</svg>
