<svg width="3032" height="852" viewBox="0 0 3032 852" fill="none" xmlns="http://www.w3.org/2000/svg">
<g clip-path="url(#clip0_13_3)">
<rect width="3032" height="852" fill="none"/>
<ellipse cx="417.5" cy="466" rx="379.5" ry="367" fill="#1E1E1E"/>
<path d="M99.923 18L305.798 166.74L125.798 270.663L99.923 18Z" fill="#1E1E1E"/>
<path d="M118.282 50L266.782 168.645L146.782 237.928L118.282 50Z" fill="#EBA5A5"/>
<path d="M118.282 50L266.782 168.645L146.782 237.928L118.282 50Z" fill="#EBA5A5"/>
<path d="M118.282 50L266.782 168.645L146.782 237.928L118.282 50Z" fill="#EBA5A5"/>
<path d="M728.423 18L702.548 270.663L522.548 166.74L728.423 18Z" fill="#1E1E1E"/>
<circle cx="418" cy="466" r="130" fill="white" fill-opacity="0.82"/>
<path d="M478.622 428L418 533L357.378 428H478.622Z" fill="#EBA5A5" stroke="black" stroke-width="5"/>
<path d="M710.282 50L681.782 237.928L561.782 168.645L710.282 50Z" fill="#EBA5A5"/>
<path d="M710.282 50L681.782 237.928L561.782 168.645L710.282 50Z" fill="#EBA5A5"/>
<path d="M710.282 50L681.782 237.928L561.782 168.645L710.282 50Z" fill="#EBA5A5"/>
<circle cx="267" cy="352" r="82.5" fill="#1E1E1E" stroke="url(#paint0_linear_13_3)" stroke-width="15"/>
<circle cx="571" cy="352" r="82.5" fill="#1E1E1E" stroke="url(#paint1_linear_13_3)" stroke-width="15"/>
<line x1="417.5" y1="528" x2="417.5" y2="426" stroke="black"/>
<path d="M994.515 404V136.04H1106.55C1125.29 136.04 1141.46 139.505 1155.06 146.435C1170.72 154.392 1183.17 165.813 1192.41 180.7C1201.65 195.33 1206.27 211.5 1206.27 229.21C1206.27 246.92 1201.65 263.218 1192.41 278.105C1183.42 292.992 1171.1 304.413 1155.45 312.37C1142.1 319.3 1125.8 322.765 1106.55 322.765H1064.59V404H994.515ZM1426.58 144.895C1441.98 152.082 1454.04 162.733 1462.77 176.85C1471.75 190.967 1476.24 206.623 1476.24 223.82C1476.24 243.84 1470.08 261.807 1457.76 277.72C1445.7 293.377 1430.17 303.772 1411.18 308.905L1479.32 404H1462.38L1396.55 311.6L1384.23 311.985H1287.59V404H1273.35V136.04H1375.37C1386.66 136.04 1396.29 136.81 1404.25 138.35C1412.46 139.633 1419.9 141.815 1426.58 144.895ZM1388.08 297.74C1401.42 297.74 1413.74 294.403 1425.04 287.73C1436.33 281.057 1445.31 272.073 1451.99 260.78C1458.66 249.487 1462 237.167 1462 223.82C1462 208.933 1458.02 195.458 1450.06 183.395C1442.36 171.332 1431.58 162.348 1417.72 156.445C1407.71 152.338 1393.59 150.285 1375.37 150.285H1287.59V297.74H1388.08ZM1561.03 136.04H1749.68V150.285H1575.28V258.855H1726.97V273.1H1575.28V389.755H1749.68V404H1561.03V136.04ZM2046.61 136.04V150.285H1945.35V404H1931.49V150.285H1830.24V136.04H2046.61ZM2323.13 136.04L2322.74 150.285L2141.79 389.755H2323.13V404H2124.08V389.755L2304.65 150.285H2128.32V136.04H2323.13ZM2416 136.04H2604.65V150.285H2430.25V258.855H2581.94V273.1H2430.25V389.755H2604.65V404H2416V136.04ZM2710.62 404V136.04H2724.86V389.755H2911.59V404H2710.62Z" fill="black"/>
<path d="M1495.01 546.27H1498.61L1520.48 584.97L1542.26 546.27H1545.59V608.91H1495.01V546.27ZM1498.34 605.67H1542.26V553.02L1522.01 588.66H1518.86L1498.34 552.48V605.67ZM1585.21 546.36H1588.72L1614.46 609H1610.86L1602.4 588.3H1571.53L1562.98 609H1559.47L1585.21 546.36ZM1572.88 585.06H1601.05L1586.92 550.68L1572.88 585.06ZM1631.58 609H1628.25V546.36H1631.85L1653.72 584.97L1675.5 546.36H1678.83V609H1675.5V553.02L1655.25 588.75H1652.1L1631.58 552.57V609ZM1740.5 546.36V549.69L1721.78 549.69V605.67H1740.5V609H1699.91V605.67H1718.54V549.69H1699.91V546.36L1740.5 546.36ZM1762.3 609V546.36H1765.81L1809.55 588.84V546.36H1812.88V609H1809.55V593.52L1765.63 550.68V609H1762.3ZM1851.7 546.36H1855.21L1880.95 609H1877.35L1868.89 588.3H1838.02L1829.47 609H1825.96L1851.7 546.36ZM1839.37 585.06H1867.54L1853.41 550.68L1839.37 585.06ZM1999.25 548.16C2002.07 549.6 2004.23 551.58 2005.73 554.1C2007.29 556.62 2008.07 559.44 2008.07 562.56C2008.07 565.5 2007.29 568.23 2005.73 570.75C2004.23 573.21 2002.13 575.16 1999.43 576.6C2002.61 577.68 2005.25 579.66 2007.35 582.54C2009.45 585.42 2010.5 588.6 2010.5 592.08C2010.5 595.2 2009.72 598.08 2008.16 600.72C2006.6 603.36 2004.53 605.4 2001.95 606.84C2000.63 607.56 1999.16 608.1 1997.54 608.46C1995.92 608.82 1993.76 609 1991.06 609H1964.78V546.36H1989.8C1993.76 546.36 1996.91 546.96 1999.25 548.16ZM1997.81 573.99C1999.97 572.91 2001.68 571.35 2002.94 569.31C2004.2 567.27 2004.83 565.02 2004.83 562.56C2004.83 559.8 2004.11 557.4 2002.67 555.36C2001.23 553.26 1999.4 551.73 1997.18 550.77C1995.5 550.05 1992.68 549.69 1988.72 549.69H1968.02V575.43H1990.34C1993.46 575.43 1995.95 574.95 1997.81 573.99ZM1999.97 604.32C2002.19 603.18 2003.96 601.53 2005.28 599.37C2006.6 597.15 2007.26 594.75 2007.26 592.17C2007.26 589.47 2006.57 587.04 2005.19 584.88C2003.81 582.66 2001.95 581.01 1999.61 579.93C1997.81 579.09 1995.38 578.67 1992.32 578.67H1968.02V605.76H1991.15C1993.43 605.76 1995.23 605.64 1996.55 605.4C1997.87 605.16 1999.01 604.8 1999.97 604.32ZM2027.98 546.36H2031.31V585.06C2031.31 589.02 2032.3 592.68 2034.28 596.04C2036.26 599.4 2038.93 602.07 2042.29 604.05C2045.65 606.03 2049.31 607.02 2053.27 607.02C2057.23 607.02 2060.89 606.03 2064.25 604.05C2067.61 602.07 2070.28 599.4 2072.26 596.04C2074.24 592.68 2075.23 589.02 2075.23 585.06V546.36H2078.56V585.06C2078.56 589.62 2077.42 593.85 2075.14 597.75C2072.86 601.59 2069.77 604.65 2065.87 606.93C2062.03 609.21 2057.83 610.35 2053.27 610.35C2048.71 610.35 2044.48 609.21 2040.58 606.93C2036.74 604.65 2033.68 601.59 2031.4 597.75C2029.12 593.85 2027.98 589.62 2027.98 585.06V546.36ZM2100.54 609V546.36H2103.87V605.67H2147.52V609H2100.54ZM2186.51 545.01C2191.19 545.01 2195.51 546.18 2199.47 548.52C2203.43 550.8 2206.55 553.92 2208.83 557.88C2211.17 561.84 2212.34 566.16 2212.34 570.84V584.52C2212.34 589.2 2211.17 593.52 2208.83 597.48C2206.55 601.44 2203.43 604.59 2199.47 606.93C2195.51 609.21 2191.19 610.35 2186.51 610.35C2181.83 610.35 2177.51 609.21 2173.55 606.93C2169.59 604.59 2166.44 601.44 2164.1 597.48C2161.82 593.52 2160.68 589.2 2160.68 584.52V570.84C2160.68 566.16 2161.82 561.84 2164.1 557.88C2166.44 553.92 2169.59 550.8 2173.55 548.52C2177.51 546.18 2181.83 545.01 2186.51 545.01ZM2164.01 584.52C2164.01 588.6 2165 592.38 2166.98 595.86C2169.02 599.28 2171.75 602.01 2175.17 604.05C2178.65 606.03 2182.43 607.02 2186.51 607.02C2190.59 607.02 2194.34 606.03 2197.76 604.05C2201.24 602.01 2203.97 599.28 2205.95 595.86C2207.99 592.38 2209.01 588.6 2209.01 584.52V570.84C2209.01 566.76 2207.99 563.01 2205.95 559.59C2203.97 556.11 2201.24 553.38 2197.76 551.4C2194.34 549.36 2190.59 548.34 2186.51 548.34C2182.43 548.34 2178.65 549.36 2175.17 551.4C2171.75 553.38 2169.02 556.11 2166.98 559.59C2165 563.01 2164.01 566.76 2164.01 570.84V584.52ZM2231.62 585.06C2231.62 589.02 2232.61 592.68 2234.59 596.04C2236.63 599.4 2239.33 602.07 2242.69 604.05C2246.11 606.03 2249.8 607.02 2253.76 607.02C2257.84 607.02 2261.53 606.21 2264.83 604.59C2268.13 602.97 2270.71 600.72 2272.57 597.84C2274.49 594.96 2275.48 591.72 2275.54 588.12H2278.78C2278.78 592.26 2277.67 596.04 2275.45 599.46C2273.29 602.82 2270.29 605.49 2266.45 607.47C2262.67 609.39 2258.44 610.35 2253.76 610.35C2249.2 610.35 2244.97 609.21 2241.07 606.93C2237.17 604.65 2234.08 601.59 2231.8 597.75C2229.52 593.85 2228.38 589.62 2228.38 585.06V570.3C2228.38 565.74 2229.49 561.54 2231.71 557.7C2233.99 553.8 2237.05 550.71 2240.89 548.43C2244.79 546.15 2249.02 545.01 2253.58 545.01C2258.2 545.01 2262.4 546 2266.18 547.98C2270.02 549.9 2273.05 552.57 2275.27 555.99C2277.49 559.35 2278.6 563.1 2278.6 567.24H2275.36C2275.3 563.64 2274.31 560.4 2272.39 557.52C2270.47 554.64 2267.86 552.39 2264.56 550.77C2261.32 549.15 2257.66 548.34 2253.58 548.34C2249.62 548.34 2245.96 549.33 2242.6 551.31C2239.24 553.29 2236.57 555.96 2234.59 559.32C2232.61 562.68 2231.62 566.34 2231.62 570.3V585.06ZM2295.63 609V546.36H2298.96V575.97H2340.54V546.36H2343.87V609H2340.54V579.3H2298.96V609H2295.63ZM2366.3 546.36V588.75L2408.78 546.36H2413.46L2387.27 572.46L2413.37 609H2409.41L2384.93 574.8L2366.3 593.43V609H2362.97V546.36H2366.3ZM2451.29 546.36H2454.8L2480.54 609H2476.94L2468.48 588.3H2437.61L2429.06 609H2425.55L2451.29 546.36ZM2438.96 585.06H2467.13L2453 550.68L2438.96 585.06Z" fill="black"/>
<path d="M1761.95 720.69C1757.98 719.897 1754.74 719.033 1752.22 718.1C1749.75 717.12 1747.79 715.813 1746.34 714.18C1744.94 712.5 1744.24 710.353 1744.24 707.74C1744.24 705.033 1744.94 702.653 1746.34 700.6C1747.79 698.547 1749.79 696.96 1752.36 695.84C1754.97 694.72 1757.98 694.16 1761.39 694.16C1764.66 694.16 1767.64 694.86 1770.35 696.26C1773.1 697.613 1775.27 699.527 1776.86 702C1778.45 704.473 1779.24 707.297 1779.24 710.47H1776.65C1776.65 707.717 1775.97 705.29 1774.62 703.19C1773.27 701.09 1771.42 699.48 1769.09 698.36C1766.76 697.193 1764.17 696.61 1761.32 696.61C1758.8 696.61 1756.44 697.007 1754.25 697.8C1752.06 698.593 1750.26 699.807 1748.86 701.44C1747.51 703.073 1746.83 705.127 1746.83 707.6C1746.83 709.84 1747.48 711.637 1748.79 712.99C1750.1 714.297 1751.8 715.3 1753.9 716C1756 716.7 1758.94 717.447 1762.72 718.24C1766.55 719.033 1769.51 719.803 1771.61 720.55C1773.76 721.25 1775.55 722.44 1777 724.12C1778.49 725.8 1779.24 728.157 1779.24 731.19C1779.24 734.223 1778.42 736.79 1776.79 738.89C1775.2 740.943 1773.08 742.483 1770.42 743.51C1767.76 744.537 1764.87 745.05 1761.74 745.05C1757.87 745.05 1754.46 744.327 1751.52 742.88C1748.58 741.433 1746.32 739.403 1744.73 736.79C1743.19 734.13 1742.42 731.097 1742.42 727.69H1745.01C1745.01 730.677 1745.66 733.29 1746.97 735.53C1748.32 737.77 1750.26 739.52 1752.78 740.78C1755.3 741.993 1758.29 742.6 1761.74 742.6C1766.03 742.6 1769.58 741.573 1772.38 739.52C1775.23 737.467 1776.65 734.667 1776.65 731.12C1776.65 728.693 1776.04 726.827 1774.83 725.52C1773.62 724.213 1772.08 723.28 1770.21 722.72C1768.39 722.113 1765.64 721.437 1761.95 720.69ZM1828.54 695.28V697.87H1813.98V741.41H1828.54V744H1796.97V741.41H1811.46V697.87H1796.97V695.28H1828.54ZM1845.49 744V695.28H1848.22L1882.24 728.32V695.28H1884.83V744H1882.24V731.96L1848.08 698.64V744H1845.49ZM1899.62 725.38C1899.62 728.46 1900.39 731.307 1901.93 733.92C1903.52 736.533 1905.62 738.61 1908.23 740.15C1910.89 741.69 1913.76 742.46 1916.84 742.46C1920.01 742.46 1922.88 741.83 1925.45 740.57C1928.02 739.31 1930.02 737.56 1931.47 735.32C1932.96 733.08 1933.73 730.56 1933.78 727.76H1936.3C1936.3 730.98 1935.44 733.92 1933.71 736.58C1932.03 739.193 1929.7 741.27 1926.71 742.81C1923.77 744.303 1920.48 745.05 1916.84 745.05C1913.29 745.05 1910 744.163 1906.97 742.39C1903.94 740.617 1901.53 738.237 1899.76 735.25C1897.99 732.217 1897.1 728.927 1897.1 725.38V713.9C1897.1 710.353 1897.96 707.087 1899.69 704.1C1901.46 701.067 1903.84 698.663 1906.83 696.89C1909.86 695.117 1913.15 694.23 1916.7 694.23C1920.29 694.23 1923.56 695 1926.5 696.54C1929.49 698.033 1931.84 700.11 1933.57 702.77C1935.3 705.383 1936.16 708.3 1936.16 711.52H1933.64C1933.59 708.72 1932.82 706.2 1931.33 703.96C1929.84 701.72 1927.81 699.97 1925.24 698.71C1922.72 697.45 1919.87 696.82 1916.7 696.82C1913.62 696.82 1910.77 697.59 1908.16 699.13C1905.55 700.67 1903.47 702.747 1901.93 705.36C1900.39 707.973 1899.62 710.82 1899.62 713.9V725.38ZM1951.37 695.28H1985.67V697.87H1953.96V717.61H1981.54V720.2H1953.96V741.41H1985.67V744H1951.37V695.28ZM2086.92 741.41V744H2056.68V741.41L2067.18 729.86L2076.7 719.5L2077.54 718.59C2079.41 716.63 2080.85 714.857 2081.88 713.27C2082.91 711.637 2083.42 709.887 2083.42 708.02C2083.42 705.92 2082.88 704.007 2081.81 702.28C2080.78 700.553 2079.34 699.2 2077.47 698.22C2075.65 697.24 2073.62 696.75 2071.38 696.75C2069.23 696.75 2067.23 697.287 2065.36 698.36C2063.54 699.433 2062.09 700.903 2061.02 702.77C2059.95 704.59 2059.41 706.597 2059.41 708.79H2056.82C2056.82 706.13 2057.47 703.703 2058.78 701.51C2060.09 699.27 2061.84 697.497 2064.03 696.19C2066.27 694.883 2068.72 694.23 2071.38 694.23C2074.13 694.23 2076.61 694.837 2078.8 696.05C2081.04 697.217 2082.79 698.85 2084.05 700.95C2085.36 703.05 2086.01 705.407 2086.01 708.02C2086.01 710.353 2085.43 712.43 2084.26 714.25C2083.09 716.07 2081.48 718.1 2079.43 720.34L2078.59 721.25L2060.18 741.41H2086.92ZM2140.06 728.6C2140.06 731.587 2139.32 734.34 2137.82 736.86C2136.38 739.38 2134.39 741.387 2131.87 742.88C2129.35 744.327 2126.6 745.05 2123.61 745.05C2120.63 745.05 2117.87 744.327 2115.35 742.88C2112.83 741.387 2110.83 739.38 2109.33 736.86C2107.89 734.34 2107.16 731.587 2107.16 728.6V710.75C2107.16 707.763 2107.89 705.01 2109.33 702.49C2110.83 699.97 2112.83 697.987 2115.35 696.54C2117.87 695.047 2120.63 694.3 2123.61 694.3C2126.6 694.3 2129.35 695.047 2131.87 696.54C2134.39 697.987 2136.38 699.97 2137.82 702.49C2139.32 705.01 2140.06 707.763 2140.06 710.75V728.6ZM2109.68 728.6C2109.68 730.187 2109.99 731.82 2110.59 733.5L2135.3 703.33C2134.04 701.37 2132.39 699.807 2130.33 698.64C2128.28 697.473 2126.04 696.89 2123.61 696.89C2121.09 696.89 2118.76 697.52 2116.61 698.78C2114.51 699.993 2112.83 701.673 2111.57 703.82C2110.31 705.92 2109.68 708.23 2109.68 710.75V728.6ZM2137.54 710.75C2137.54 709.163 2137.24 707.53 2136.63 705.85L2111.92 736.02C2113.18 738.027 2114.84 739.613 2116.89 740.78C2118.95 741.947 2121.19 742.53 2123.61 742.53C2126.13 742.53 2128.44 741.9 2130.54 740.64C2132.69 739.38 2134.39 737.7 2135.65 735.6C2136.91 733.453 2137.54 731.12 2137.54 728.6V710.75ZM2190.55 741.41V744H2160.31V741.41L2170.81 729.86L2180.33 719.5L2181.17 718.59C2183.04 716.63 2184.48 714.857 2185.51 713.27C2186.54 711.637 2187.05 709.887 2187.05 708.02C2187.05 705.92 2186.51 704.007 2185.44 702.28C2184.41 700.553 2182.97 699.2 2181.1 698.22C2179.28 697.24 2177.25 696.75 2175.01 696.75C2172.86 696.75 2170.86 697.287 2168.99 698.36C2167.17 699.433 2165.72 700.903 2164.65 702.77C2163.58 704.59 2163.04 706.597 2163.04 708.79H2160.45C2160.45 706.13 2161.1 703.703 2162.41 701.51C2163.72 699.27 2165.47 697.497 2167.66 696.19C2169.9 694.883 2172.35 694.23 2175.01 694.23C2177.76 694.23 2180.24 694.837 2182.43 696.05C2184.67 697.217 2186.42 698.85 2187.68 700.95C2188.99 703.05 2189.64 705.407 2189.64 708.02C2189.64 710.353 2189.06 712.43 2187.89 714.25C2186.72 716.07 2185.11 718.1 2183.06 720.34L2182.22 721.25L2163.81 741.41H2190.55ZM2225.99 741.41V704.17C2224.45 706.55 2222.42 708.44 2219.9 709.84C2217.42 711.24 2214.72 711.94 2211.78 711.94V709.42C2214.34 709.42 2216.7 708.79 2218.85 707.53C2221.04 706.223 2222.77 704.497 2224.03 702.35C2225.33 700.157 2225.99 697.777 2225.99 695.21H2228.51V741.41H2243.21V744H2211.29V741.41H2225.99Z" fill="black"/>
<line x1="1015" y1="473.5" x2="2879" y2="473.5" stroke="black" stroke-width="7"/>
</g>
<defs>
<linearGradient id="paint0_linear_13_3" x1="267" y1="262" x2="267" y2="442" gradientUnits="userSpaceOnUse">
<stop stop-color="#A9D039"/>
<stop offset="0.5" stop-color="#ECCA54"/>
<stop offset="1" stop-color="#DAFA81"/>
</linearGradient>
<linearGradient id="paint1_linear_13_3" x1="571" y1="262" x2="571" y2="442" gradientUnits="userSpaceOnUse">
<stop stop-color="#A9D039"/>
<stop offset="0.5" stop-color="#ECCA54"/>
<stop offset="1" stop-color="#DAFA81"/>
</linearGradient>
<clipPath id="clip0_13_3">
<rect width="3032" height="852" fill="white"/>
</clipPath>
</defs>
</svg>
